<svg xmlns="http://www.w3.org/2000/svg" viewBox="0 0 220 220">
  <defs>
    <!-- Accent gradient -->
    <linearGradient id="accent" x1="40" y1="60" x2="180" y2="160" gradientUnits="userSpaceOnUse">
      <stop offset="0" stop-color="#B67CFF"/>
      <stop offset="1" stop-color="#5CF3FF"/>
    </linearGradient>

    <!-- Soft glow -->
    <filter id="glow" x="-40%" y="-40%" width="180%" height="180%">
      <feGaussianBlur stdDeviation="3" result="b"/>
      <feColorMatrix in="b" type="matrix"
        values="1 0 0 0 0
                0 1 0 0 0
                0 0 1 0 0
                0 0 0 0.6 0" result="c"/>
      <feMerge>
        <feMergeNode in="c"/>
        <feMergeNode in="SourceGraphic"/>
      </feMerge>
    </filter>

    <!-- Metallic stroke -->
    <linearGradient id="metal" x1="60" y1="60" x2="160" y2="160" gradientUnits="userSpaceOnUse">
      <stop offset="0" stop-color="#D6D6D6" stop-opacity="0.9"/>
      <stop offset="0.5" stop-color="#8A8A8A" stop-opacity="0.9"/>
      <stop offset="1" stop-color="#EDEDED" stop-opacity="0.9"/>
    </linearGradient>
  </defs>

  <!-- Whole spider group (easy to move/rotate) -->
  <g id="spider" filter="url(#glow)" fill="none" stroke-linecap="round" stroke-linejoin="round">
    <!-- Legs -->
    <g id="legs" stroke="url(#metal)" stroke-width="4">
      <!-- Left legs -->
      <g id="leg1" class="leg l">
        <polyline points="98,98 68,78 40,66"/>
        <polyline points="68,78 58,58 44,48"/>
        <circle cx="68" cy="78" r="2.8" fill="#B67CFF" stroke="none" opacity="0.9"/>
      </g>
      <g id="leg2" class="leg l">
        <polyline points="96,106 62,102 36,106"/>
        <polyline points="62,102 48,92 34,88"/>
        <circle cx="62" cy="102" r="2.8" fill="#B67CFF" stroke="none" opacity="0.9"/>
      </g>
      <g id="leg3" class="leg l">
        <polyline points="96,116 62,128 38,144"/>
        <polyline points="62,128 50,142 40,158"/>
        <circle cx="62" cy="128" r="2.8" fill="#B67CFF" stroke="none" opacity="0.9"/>
      </g>
      <g id="leg4" class="leg l">
        <polyline points="100,126 76,154 56,176"/>
        <polyline points="76,154 72,172 68,188"/>
        <circle cx="76" cy="154" r="2.8" fill="#B67CFF" stroke="none" opacity="0.9"/>
      </g>

      <!-- Right legs -->
      <g id="leg5" class="leg r">
        <polyline points="122,98 154,78 182,66"/>
        <polyline points="154,78 166,58 178,48"/>
        <circle cx="154" cy="78" r="2.8" fill="#5CF3FF" stroke="none" opacity="0.9"/>
      </g>
      <g id="leg6" class="leg r">
        <polyline points="124,106 160,102 186,106"/>
        <polyline points="160,102 174,92 188,88"/>
        <circle cx="160" cy="102" r="2.8" fill="#5CF3FF" stroke="none" opacity="0.9"/>
      </g>
      <g id="leg7" class="leg r">
        <polyline points="124,116 160,128 184,144"/>
        <polyline points="160,128 172,142 182,158"/>
        <circle cx="160" cy="128" r="2.8" fill="#5CF3FF" stroke="none" opacity="0.9"/>
      </g>
      <g id="leg8" class="leg r">
        <polyline points="120,126 144,154 164,176"/>
        <polyline points="144,154 148,172 152,188"/>
        <circle cx="144" cy="154" r="2.8" fill="#5CF3FF" stroke="none" opacity="0.9"/>
      </g>
    </g>

    <!-- Body -->
    <g id="body">
      <!-- Abdomen (armored) -->
      <path d="M150 118
               C150 142 132 158 110 158
               C88 158 70 142 70 118
               C70 94 88 80 110 80
               C132 80 150 94 150 118Z"
            stroke="url(#metal)" stroke-width="5"/>

      <!-- Panel lines -->
      <path d="M110 80 L110 158" stroke="url(#accent)" stroke-width="2" opacity="0.6"/>
      <path d="M86 92 L134 92" stroke="url(#accent)" stroke-width="2" opacity="0.35"/>
      <path d="M80 110 L140 110" stroke="url(#accent)" stroke-width="2" opacity="0.25"/>
      <path d="M86 144 L134 144" stroke="url(#accent)" stroke-width="2" opacity="0.35"/>

      <!-- Thorax -->
      <path d="M128 110
               C128 124 120 134 110 134
               C100 134 92 124 92 110
               C92 96 100 88 110 88
               C120 88 128 96 128 110Z"
            stroke="url(#metal)" stroke-width="5"/>

      <!-- Head (sensor) -->
      <path d="M96 106
               C96 98 102 92 110 92
               C118 92 124 98 124 106
               C124 114 118 118 110 118
               C102 118 96 114 96 106Z"
            stroke="url(#metal)" stroke-width="5"/>

      <!-- Core glow -->
      <circle id="core" cx="110" cy="118" r="8" fill="url(#accent)" stroke="none" opacity="0.95"/>
      <circle cx="110" cy="118" r="14" fill="none" stroke="url(#accent)" stroke-width="2" opacity="0.35"/>

      <!-- Eyes -->
      <circle cx="104" cy="104" r="2.2" fill="#B67CFF" stroke="none"/>
      <circle cx="116" cy="104" r="2.2" fill="#5CF3FF" stroke="none"/>
    </g>
  </g>
</svg>
